<?xml version="1.0" encoding="utf-8"?>
<!-- Generator: Adobe Illustrator 25.0.0, SVG Export Plug-In . SVG Version: 6.00 Build 0)  -->
<svg version="1.1" id="Ebene_1" xmlns="http://www.w3.org/2000/svg" xmlns:xlink="http://www.w3.org/1999/xlink" x="0px" y="0px"
	 viewBox="0 0 174.1 40" style="enable-background:new 0 0 174.1 40;" xml:space="preserve">
<style type="text/css">
	.st0{fill-rule:evenodd;clip-rule:evenodd;}
</style>
<path id="Fill-25" class="st0" d="M52.5,9.8H52c-0.3,0.6-0.4,0.9-0.7,1.5l-0.4,0.9l-4.3,7.6l-0.9,1.6l-0.7,1.5h8.2L52.5,9.8z
	 M16.2,0h14.3L19.2,28c-0.3,0.7-0.4,1-0.9,1.8l0.1,0.1c0.7,0,0.9-0.1,1.2-0.1h7.7c0.6-1,0.7-1.3,1.3-2.4L46.2,0h16.4l2.8,27.8
	l0.1,3.1l0.1,1.3h0.4c0.6-2.4,0.9-3.3,1.5-4.8L78.8,0h20.1l-1.6,17.4l-0.1,1.8L97,21.3h0.4c1.2-2.1,1.6-3,2.4-4.2L110.9,0h30.9
	l2.5,10.9c0.3,1,0.4,1.6,0.4,3h0.3c0.9-1.3,1.2-1.8,2.4-3.1l10-10.7h16.7l-26,25.6L142.3,40h-13.7l6.7-17.1L132,9.5
	c-0.1-0.9-0.3-1.5-0.4-3.1h-0.3L130,10l-1,3L118.1,40H105l9.1-22c0.9-2.4,1-2.7,1.9-4.3l-0.9-0.1l-0.9,1.5l-1.2,1.8L96.4,40H84.6
	l1.9-22.9c0-1,0.1-1.8,0.3-3.4h-0.6c-0.9,2.5-1.2,3.7-1.9,5.4l-8,21H54.1l-0.6-6.4v-1.9H40.1L35.4,40H0L16.2,0L16.2,0z"/>
</svg>
